<?xml version="1.0" encoding="UTF-8"?>
<!DOCTYPE svg PUBLIC "-//W3C//DTD SVG 1.1//EN" "http://www.w3.org/Graphics/SVG/1.1/DTD/svg11.dtd">
<svg version="1.1" xmlns="http://www.w3.org/2000/svg" xmlns:xlink="http://www.w3.org/1999/xlink" x="0" y="0" width="240" height="45" viewBox="0, 0, 240, 45">
  <g id="Layer_1">
    <path d="M233.3,44.8 L233.3,34.2 L235.6,34.2 L235.6,42.6 L239.9,42.6 L239.9,44.8 L233.3,44.8 z M226.7,30.9 C219.7,30.9 214.6,26.3 214.6,19.1 C214.6,11.9 219.7,7.3 226.7,7.3 C230.3,7.3 233.4,8.1 235.7,10.2 L232.2,14 C230.9,12.6 229.2,11.9 226.7,11.9 C222.5,11.9 219.7,14.9 219.7,19.1 C219.7,23.3 222.5,26.3 226.7,26.3 C228.9,26.3 230.5,25.7 231.4,25.2 L231.4,21.6 L227.4,21.6 L227.4,17 L236.2,17 L236.2,28.7 C233.2,30.3 230,30.9 226.7,30.9 z M222.4,36.3 L219.4,36.3 L219.4,44.8 L217.1,44.8 L217.1,36.3 L214.1,36.3 L214.1,34.2 L222.5,34.2 L222.5,36.3 z M210.5,34.2 L212.8,34.2 L212.8,44.8 L210.5,44.8 L210.5,34.2 z M194.9,14.4 L194.9,14.4 L194.8,30.4 L189.8,30.4 L189.8,7.9 L196.5,7.9 L206.1,23.5 L206.2,23.5 L206.2,7.9 L211.2,7.9 L211.2,30.4 L204.7,30.4 L194.9,14.4 z M186.9,44.8 L183.1,44.8 L183.1,34.2 L186.6,34.2 C190,34.2 192.9,35.6 192.9,39.5 C192.9,42.9 190.1,44.8 186.9,44.8 z M186.8,36.4 L185.4,36.4 L185.4,42.7 L186.6,42.7 C188.8,42.7 190.4,41.9 190.4,39.5 C190.4,37.3 188.8,36.4 186.8,36.4 z M180.1,25.6 L171.4,25.6 L169.5,30.4 L164,30.4 L173.7,7.9 L177.8,7.9 L187.6,30.4 L182,30.4 L180.1,25.6 z M175.6,14.4 L172.9,21.4 L178.4,21.4 L175.6,14.4 z M152.5,30.9 C145.5,30.9 140.3,26.3 140.3,19.1 C140.3,11.9 145.4,7.3 152.5,7.3 C156.1,7.3 159.2,8.1 161.5,10.2 L158,14 C156.7,12.6 155,11.9 152.5,11.9 C148.3,11.9 145.5,14.9 145.5,19.1 C145.5,23.3 148.3,26.3 152.5,26.3 C154.7,26.3 156.3,25.7 157.2,25.2 L157.2,21.6 L153.2,21.6 L153.2,17 L162,17 L162,28.7 C159,30.3 155.8,30.9 152.5,30.9 z M127.8,17 L137.2,17 L137.2,21.6 L127.8,21.6 L127.8,30.4 L122.8,30.4 L122.8,7.9 L137.9,7.9 L137.9,12.5 L127.8,12.5 L127.8,17 z M105.8,7.9 L110.8,7.9 L110.8,25.8 L120,25.8 L120,30.4 L105.8,30.4 L105.8,7.9 z M90.1,30.9 C83.1,30.9 78,26.3 78,19.1 C78,11.9 83.1,7.3 90.1,7.3 C97.1,7.3 102.2,11.9 102.2,19.1 C102.2,26.3 97.1,30.9 90.1,30.9 z M90.1,11.9 C85.9,11.9 83.1,14.9 83.1,19.1 C83.1,23.3 85.9,26.3 90.1,26.3 C94.3,26.3 97.1,23.3 97.1,19.1 C97.1,14.9 94.3,11.9 90.1,11.9 z M65.9,30.4 L60.9,14.8 L60.8,14.8 L55.8,30.4 L51.5,30.4 L44.8,7.9 L50.2,7.9 L53.8,22.3 L53.9,22.3 L58.6,7.9 L63.2,7.9 L67.9,22.7 L68,22.7 L71.8,7.9 L76.8,7.9 L70.2,30.4 L65.9,30.4 z M20,39.7 C9,39.7 0,30.8 0,19.8 C0,16.7 0.7,13.7 2,11.1 L10.3,31.9 L19.8,6.9 L28.9,31.8 L37.8,10.7 C39.2,13.4 40,16.5 40,19.7 C39.9,30.8 31,39.7 20,39.7 z M22.5,0 C27,0.6 31.1,2.7 34.1,5.7 L29,17.9 L22.5,0 z M5.6,6 C8.6,2.9 12.6,0.8 17.1,0.1 L10.3,18 L5.6,6 z M196.7,44.8 L194.4,44.8 L194.4,34.2 L196.7,34.2 L196.7,44.8 z M204,33.9 C205.7,33.9 207.2,34.3 208.2,35.3 L206.6,37.1 C206,36.4 205.2,36.1 204,36.1 C202,36.1 200.7,37.5 200.7,39.5 C200.7,41.5 202,42.9 204,42.9 C205,42.9 205.8,42.6 206.2,42.4 L206.2,40.7 L204.3,40.7 L204.3,38.5 L208.4,38.5 L208.4,44 C207,44.7 205.5,45 204,45 C200.7,45 198.3,42.8 198.3,39.4 C198.3,36.1 200.7,33.9 204,33.9 z M227.6,34.2 L232.2,44.8 L229.6,44.8 L228.7,42.6 L224.6,42.6 L223.7,44.8 L221.1,44.8 L225.7,34.2 L227.6,34.2 z M227.9,40.6 L226.6,37.3 L225.3,40.6 L227.9,40.6 z" fill="#FFFFFF"/>
  </g>
</svg>
